<?xml version="1.0" encoding="utf-8"?>
<svg xmlns="http://www.w3.org/2000/svg" viewBox="0 0 200 200" aria-label="WEBERBER mark">
  <path fill="currentColor" d="M94.4,65V13.3c0,0,1.5-5.9,3.7-5.9c2.2,0,11.3,0,11.3,0s2.5,1,3,5.2c0.5,4.2,0,52.5,0,52.5s-0.2,4.9,3,4.2 s24.9-4.7,38.2-23.6c13.3-19,13.5-38.2,13.5-38.2s0.5-2.2,3-2.5c2.5-0.2,10.3,0,10.3,0s3,0.5,3.7,4.9c0.7,4.4-0.5,26.1-12.3,39.9 c-11.8,13.8-29.3,31.5-54.4,34.7c0,0-5.7,3-5.7,8.9s0.5,13.3,0.5,13.3s-1.2,6.4,6.6,7.9c7.9,1.5,25.9,5.9,38.4,18.2 c12.6,12.3,24.5,30.3,27,46.3c2.5,16-1.9,15.5-1.9,15.5l-11.8,0c0,0-3.7-1-3.7-5.9s-1.7-15.3-4.9-22.7s-17-22.7-24.4-25.9 c0,0-14-10.6-25.1-7.4l-1,58.9c0,0-0.5,2.2-3.4,3c-3,0.7-8.9,0-8.9,0s-3.2,0.1-4.7-3.1v-58.9c0,0-24.7-2.2-44.1,25.4 c0,0-10.7,8.5-11.3,33.2c0,0-1.1,3.5-2.8,3.7c-1.7,0.2-11.1,0-11.1,0s-3.3-0.8-2.8-4.4c0,0,0.2-31.5,19.3-49.4S84.1,116,84.1,116 l8-2.7c0,0,2.2-1.2,2.1-8c-0.1-6.8,0.2-13.7,0.2-13.7s-0.7-5.9-7.5-7c0,0-39.9-10.2-54.7-38.2S23,4.9,23,4.9l1.1-1.2h11.1 c0,0,3-0.7,3.9,5c1,5.8,4.3,30.8,20.1,43.5S87.8,70,94.4,65z"></path>
</svg>